<svg width="131" height="110" viewBox="0 0 131 110" fill="none" xmlns="http://www.w3.org/2000/svg">
<g clip-path="url(#clip0_931_42)">
<path fill-rule="evenodd" clip-rule="evenodd" d="M0 95.9866C0 95.9866 0 95.9866 2.66744 95.9866C3.64778 95.9866 4.12656 96.4722 4.12656 97.5821C4.12656 97.5821 4.12656 97.5821 4.12656 101.467C4.12656 101.467 4.12656 101.467 9.34745 101.467C9.34745 101.467 9.34745 101.467 9.34745 97.5821C9.34745 96.4722 9.82622 95.9866 10.9206 95.9866C10.9206 95.9866 10.9206 95.9866 13.474 95.9866C13.474 95.9866 13.474 95.9866 13.474 98.5532C13.474 98.5532 13.474 98.5532 12.3797 98.5532L12.2657 98.6688C12.2657 98.6688 12.2657 98.6688 12.2657 109.629C12.2657 109.629 12.2657 109.629 9.34745 109.629C9.34745 109.629 9.34745 109.629 9.34745 104.149C9.34745 104.149 9.34745 104.149 4.12656 104.149C4.12656 104.149 4.12656 104.149 4.12656 109.629C4.12656 109.629 4.12656 109.629 1.20833 109.629C1.20833 109.629 1.20833 109.629 1.20833 98.6688C1.20833 98.6688 1.20833 98.5532 1.09434 98.5532C1.09434 98.5532 1.09434 98.5532 0 98.5532C0 98.5532 0 98.5532 0 95.9866Z" fill="#EA1D23"/>
<path fill-rule="evenodd" clip-rule="evenodd" d="M21.1116 95.7554H21.18V98.5763L21.1116 98.5532C18.9229 98.5532 17.2358 100.38 17.2358 102.692C17.2358 105.12 18.9229 107.085 21.1116 107.085L21.18 107.062V109.86L21.1116 109.883C17.2358 109.883 14.0668 106.715 14.0668 102.692C14.0668 98.8075 17.2358 95.7554 21.1116 95.7554Z" fill="#EA1D23"/>
<path fill-rule="evenodd" clip-rule="evenodd" d="M21.18 95.7554L22.5251 95.8941C25.7397 96.5184 28.1563 99.2931 28.1563 102.692C28.1563 106.207 25.7397 109.074 22.5251 109.721L21.18 109.86V107.062L22.6619 106.739C24.0982 106.068 25.1241 104.519 25.1241 102.692C25.1241 100.958 24.0982 99.5012 22.6619 98.8769L21.18 98.5763V95.7554Z" fill="#EA1D23"/>
<path fill-rule="evenodd" clip-rule="evenodd" d="M28.7491 95.9866C28.7491 95.9866 28.7491 95.9866 32.83 95.9866H34.7679V98.5532H34.5855C34.3347 98.5532 33.856 98.5532 32.8756 98.5532C32.8756 98.5532 32.8756 98.5532 32.8756 101.351C32.8756 101.351 32.8756 101.351 33.6964 101.351H34.7679V103.779H34.1523C33.8332 103.779 33.4228 103.779 32.8756 103.779C32.8756 103.779 32.8756 103.779 32.8756 106.831C32.8756 106.947 32.8756 106.947 33.0124 106.947C33.0124 106.947 33.0124 106.947 33.8788 106.947H34.7679V109.629H34.5171C34.0612 109.629 33.1948 109.629 31.4393 109.629C30.459 109.629 29.9802 109.143 29.9802 108.057V98.5532C29.9802 98.5532 29.9802 98.5532 28.7491 98.5532C28.7491 98.5532 28.7491 98.5532 28.7491 95.9866Z" fill="#EA1D23"/>
<path fill-rule="evenodd" clip-rule="evenodd" d="M34.7679 95.9866H34.8136C37.5038 95.9866 39.0769 97.4664 39.0769 99.6631C39.0769 100.981 38.4613 101.837 37.8686 102.461C38.9629 102.946 39.6697 104.149 39.6697 105.49C39.6697 108.057 37.7318 109.629 34.9503 109.629C34.9503 109.629 34.9503 109.629 34.9047 109.629H34.7679V106.947H35.0643C36.0447 106.947 36.6374 106.345 36.6374 105.374C36.6374 104.403 36.0447 103.779 35.0643 103.779C35.0643 103.779 35.0643 103.779 34.7908 103.779H34.7679V101.351H34.8136C35.6799 101.351 36.1587 100.75 36.1587 99.8943C36.1587 99.0388 35.6799 98.5532 34.8136 98.5532C34.8136 98.5532 34.8136 98.5532 34.7908 98.5532H34.7679V95.9866Z" fill="#EA1D23"/>
<path fill-rule="evenodd" clip-rule="evenodd" d="M45.2553 95.9866C45.2553 95.9866 45.2553 95.9866 46.4864 95.9866H46.7144V99.8943C46.6004 100.149 46.4636 100.495 46.4636 100.865C46.4636 100.865 46.4636 100.865 45.5061 103.663C45.5061 103.663 45.5061 103.663 46.532 103.663H46.7144V106.23H46.0532C45.6885 106.23 45.2553 106.23 44.7765 106.23C44.7765 106.23 44.7765 106.23 43.933 108.426C43.6822 109.259 43.2034 109.629 42.2231 109.629C42.2231 109.629 42.2231 109.629 40.3992 109.629C40.3992 109.629 40.3992 109.629 40.3992 106.947C40.3992 106.947 40.3992 106.947 41.0147 106.947C41.2655 106.947 41.2655 106.947 41.3795 106.831C41.3795 106.831 41.3795 106.831 45.2553 95.9866Z" fill="#EA1D23"/>
<path fill-rule="evenodd" clip-rule="evenodd" d="M46.7144 95.9866H48.1735C48.1735 95.9866 48.1735 95.9866 52.0493 106.831C52.1633 106.947 52.1633 106.947 52.4141 106.947C52.4141 106.947 52.4141 106.947 52.8929 106.947C52.8929 106.947 52.8929 106.947 52.8929 109.629C52.8929 109.629 52.8929 109.629 51.2058 109.629C50.2254 109.629 49.7466 109.259 49.4959 108.288C49.4959 108.288 49.4959 108.288 48.6523 106.23C48.6523 106.23 48.6523 106.23 47.0108 106.23H46.7144V103.663H47.9228C47.9228 103.663 47.9228 103.663 46.9652 100.865C46.9652 100.495 46.8284 100.149 46.7144 99.8943V95.9866Z" fill="#EA1D23"/>
<path fill-rule="evenodd" clip-rule="evenodd" d="M58.1654 96.1034C58.1654 96.1034 58.1654 96.1034 68.7212 96.1034C69.7015 96.1034 70.2943 96.6121 70.2943 97.6989C70.2943 97.6989 70.2943 97.6989 70.2943 106.948C70.2943 107.063 70.2943 107.063 70.4311 107.063C70.4311 107.063 70.4311 107.063 71.3886 107.063C71.3886 107.063 71.3886 107.063 71.3886 109.746C71.3886 109.746 71.3886 109.746 68.858 109.746C67.7636 109.746 67.2621 109.26 67.2621 108.173C67.2621 108.173 67.2621 108.173 67.2621 98.8087C67.2621 98.8087 67.2621 98.67 67.1481 98.67C67.1481 98.67 67.1481 98.67 62.292 98.67C62.292 98.67 62.292 98.67 62.292 109.746C62.292 109.746 62.292 109.746 59.3737 109.746C59.3737 109.746 59.3737 109.746 59.3737 98.67C59.3737 98.67 59.3737 98.67 58.1654 98.67C58.1654 98.67 58.1654 98.67 58.1654 96.1034Z" fill="#EA1D23"/>
<path fill-rule="evenodd" clip-rule="evenodd" d="M79.049 95.8722H79.0946V98.6931L79.049 98.67C76.8375 98.67 75.1504 100.497 75.1504 102.809C75.1504 105.237 76.8375 107.202 79.049 107.202L79.0946 107.179V109.977L79.049 110C75.1504 110 72.1182 106.832 72.1182 102.809C72.1182 98.9243 75.1504 95.8722 79.049 95.8722Z" fill="#EA1D23"/>
<path fill-rule="evenodd" clip-rule="evenodd" d="M79.0946 95.8722L80.4853 96.0109C83.7455 96.6352 86.0709 99.4099 86.0709 102.809C86.0709 106.324 83.7455 109.191 80.4853 109.838L79.0946 109.977V107.179L80.6449 106.855C82.0812 106.185 83.0387 104.636 83.0387 102.809C83.0387 101.075 82.0812 99.618 80.6449 98.9937L79.0946 98.6931V95.8722Z" fill="#EA1D23"/>
<path fill-rule="evenodd" clip-rule="evenodd" d="M86.6865 96.1034C86.6865 96.1034 86.6865 96.1034 89.3539 96.1034C90.3343 96.1034 90.8131 96.6121 90.8131 97.6989C90.8131 97.6989 90.8131 97.6989 90.8131 106.948C90.8131 107.063 90.8131 107.063 90.9271 107.063C90.9271 107.063 90.9271 107.063 94.438 107.063C94.438 107.063 94.438 107.063 94.438 96.1034C94.438 96.1034 94.438 96.1034 97.3563 96.1034C97.3563 96.1034 97.3563 96.1034 97.3563 107.063C97.3563 107.063 97.3563 107.063 100.89 107.063C101.004 107.063 101.004 107.063 101.004 106.948C101.004 106.948 101.004 106.948 101.004 97.6989C101.004 96.6121 101.483 96.1034 102.463 96.1034C102.463 96.1034 102.463 96.1034 105.131 96.1034C105.131 96.1034 105.131 96.1034 105.131 98.67C105.131 98.67 105.131 98.67 104.036 98.67C103.899 98.67 103.899 98.8087 103.899 98.8087C103.899 98.8087 103.899 98.8087 103.899 108.173C103.899 109.26 103.421 109.746 102.463 109.746C102.463 109.746 102.463 109.746 89.4679 109.746C88.3736 109.746 87.8948 109.26 87.8948 108.173C87.8948 108.173 87.8948 108.173 87.8948 98.8087C87.8948 98.8087 87.8948 98.67 87.7808 98.67C87.7808 98.67 87.7808 98.67 86.6865 98.67C86.6865 98.67 86.6865 98.67 86.6865 96.1034Z" fill="#EA1D23"/>
<path fill-rule="evenodd" clip-rule="evenodd" d="M107.433 96.1034C107.433 96.1034 107.433 96.1034 116.53 96.1034C117.624 96.1034 117.989 96.6121 117.989 97.5833C117.989 97.5833 117.989 97.5833 117.989 99.8955H115.322C115.322 99.8955 115.322 99.8955 115.322 98.8087C115.322 98.67 115.322 98.67 115.185 98.67C115.185 98.67 115.185 98.67 113.498 98.67C113.498 98.67 113.498 98.67 113.498 109.746C113.498 109.746 113.498 109.746 110.58 109.746C110.58 109.746 110.58 109.746 110.58 98.67C110.58 98.67 110.58 98.67 108.892 98.67C108.756 98.67 108.756 98.67 108.756 98.8087C108.756 98.8087 108.756 98.8087 108.756 99.8955C108.756 99.8955 108.756 99.8955 106.088 99.8955C106.088 99.8955 106.088 99.8955 106.088 97.5833C106.088 96.6121 106.453 96.1034 107.433 96.1034Z" fill="#EA1D23"/>
<path fill-rule="evenodd" clip-rule="evenodd" d="M121.751 96.1034C121.751 96.1034 121.751 96.1034 122.982 96.1034H123.21V100.011C123.073 100.265 122.959 100.612 122.959 100.982C122.959 100.982 122.959 100.982 121.979 103.78C121.979 103.78 121.979 103.78 123.005 103.78H123.21V106.347H122.549C122.161 106.347 121.751 106.347 121.249 106.347C121.249 106.347 121.249 106.347 120.406 108.405C120.178 109.376 119.676 109.746 118.719 109.746C118.719 109.746 118.719 109.746 116.895 109.746C116.895 109.746 116.895 109.746 116.895 107.063C116.895 107.063 116.895 107.063 117.51 107.063C117.738 107.063 117.738 107.063 117.875 106.948C117.875 106.948 117.875 106.948 121.751 96.1265V96.1034Z" fill="#EA1D23"/>
<path fill-rule="evenodd" clip-rule="evenodd" d="M123.21 96.1034H124.646C124.646 96.1034 124.646 96.1034 128.545 106.948C128.659 107.063 128.659 107.063 128.91 107.063H129.388C129.388 107.063 129.388 107.063 129.388 109.746C129.388 109.746 129.388 109.746 127.701 109.746C126.721 109.746 126.242 109.376 125.991 108.405C125.991 108.405 125.991 108.405 125.148 106.347C125.148 106.347 125.148 106.347 123.506 106.347H123.21V103.78H124.418C124.418 103.78 124.418 103.78 123.438 100.982C123.438 100.612 123.324 100.265 123.21 100.011V96.1034Z" fill="#EA1D23"/>
<path fill-rule="evenodd" clip-rule="evenodd" d="M87.1556 24.2485C87.4035 24.1659 87.734 24.3311 88.0644 24.7855C88.0644 24.7855 88.0644 24.7855 103.018 39.3264C103.886 40.1939 103.886 41.5158 103.018 42.1767C103.018 42.1767 103.018 42.1767 88.0644 56.9654C87.734 57.3785 87.4035 57.5024 87.1556 57.3785C86.9078 57.2546 86.7426 56.8415 86.7426 56.3045V25.1986C86.7426 24.6616 86.9078 24.3311 87.1556 24.2485Z" fill="#EA1D23"/>
<path fill-rule="evenodd" clip-rule="evenodd" d="M61.5855 0H62.6595L63.651 0.413092C63.651 0.413092 63.651 0.413092 79.0593 15.6562C79.7202 16.5237 79.4724 17.1433 78.3983 17.1433C78.3983 17.1433 78.3983 17.1433 71.9954 17.1433C70.9214 17.1433 70.0126 18.0521 70.0126 19.1262C70.0126 19.1262 70.0126 19.1262 70.0126 30.4449C70.0126 31.5189 69.1451 32.3864 67.8232 32.3864C67.8232 32.3864 67.8232 32.3864 56.6284 32.3864C55.513 32.3864 54.6455 31.5189 54.6455 30.4449C54.6455 30.4449 54.6455 30.4449 54.6455 19.1262C54.6455 18.0521 53.7781 17.1433 52.6627 17.1433H45.8467C44.7313 17.1433 44.5248 16.5237 45.1857 15.6562C45.1857 15.6562 45.1857 15.6562 60.5941 0.413092L61.5855 0Z" fill="#EA1D23"/>
<path fill-rule="evenodd" clip-rule="evenodd" d="M37.502 23.918C37.7499 24.0833 37.9151 24.4551 37.9151 24.9921V56.7176C37.9151 57.2959 37.7499 57.6264 37.502 57.709C37.2128 57.8329 36.8411 57.709 36.3867 57.3785C36.3867 57.3785 36.3867 57.3785 21.2262 42.1767C20.3587 41.5158 20.3587 40.1939 21.2262 39.3264C21.2262 39.3264 21.2262 39.3264 36.3867 24.3311C36.8411 23.918 37.2128 23.7941 37.502 23.918Z" fill="#EA1D23"/>
<path fill-rule="evenodd" clip-rule="evenodd" d="M56.6281 48.9101C56.6281 48.9101 56.6281 48.9101 67.8229 48.9101C69.1448 48.9101 70.0536 49.7776 70.0536 50.893C70.0536 50.893 70.0536 50.893 70.0536 62.8313C70.0536 64.1532 70.9211 65.0207 71.9952 65.0207H77.9437C79.059 65.0207 79.4721 65.6404 78.6046 66.3013C78.6046 66.3013 78.6046 66.3013 63.6507 81.2966C63.1963 81.751 62.6593 81.9575 62.1223 81.9575C61.5852 81.9575 61.0069 81.751 60.5938 81.2966C60.5938 81.2966 60.5938 81.2966 45.6399 66.3013C44.7311 65.6404 45.1855 65.0207 46.2595 65.0207C46.2595 65.0207 46.2595 65.0207 52.6625 65.0207C53.7778 65.0207 54.6453 64.1532 54.6453 62.8313C54.6453 62.8313 54.6453 62.8313 54.6453 50.893C54.6453 49.7776 55.5128 48.9101 56.6281 48.9101Z" fill="#EA1D23"/>
</g>
<defs>
<clipPath id="clip0_931_42">
<rect width="130.167" height="110" fill="white"/>
</clipPath>
</defs>
</svg>
