<svg width="100" height="85" viewBox="0 0 100 85" fill="none" xmlns="http://www.w3.org/2000/svg">
<path fill-rule="evenodd" clip-rule="evenodd" d="M0 74.1715C0 74.1715 0 74.1715 2.06121 74.1715C2.81874 74.1715 3.1887 74.5467 3.1887 75.4043C3.1887 75.4043 3.1887 75.4043 3.1887 78.406C3.1887 78.406 3.1887 78.406 7.22303 78.406C7.22303 78.406 7.22303 78.406 7.22303 75.4043C7.22303 74.5467 7.59299 74.1715 8.43861 74.1715C8.43861 74.1715 8.43861 74.1715 10.4117 74.1715C10.4117 74.1715 10.4117 74.1715 10.4117 76.1548C10.4117 76.1548 10.4117 76.1548 9.56611 76.1548L9.47802 76.2441C9.47802 76.2441 9.47802 76.2441 9.47802 84.7132C9.47802 84.7132 9.47802 84.7132 7.22303 84.7132C7.22303 84.7132 7.22303 84.7132 7.22303 80.4787C7.22303 80.4787 7.22303 80.4787 3.1887 80.4787C3.1887 80.4787 3.1887 80.4787 3.1887 84.7132C3.1887 84.7132 3.1887 84.7132 0.933708 84.7132C0.933708 84.7132 0.933708 84.7132 0.933708 76.2441C0.933708 76.2441 0.933708 76.1548 0.845623 76.1548C0.845623 76.1548 0.845623 76.1548 0 76.1548C0 76.1548 0 76.1547 0 74.1715Z" fill="#EA1D23"/>
<path fill-rule="evenodd" clip-rule="evenodd" d="M16.3135 73.9928H16.3663V76.1726L16.3135 76.1547C14.6222 76.1547 13.3186 77.5663 13.3186 79.353C13.3186 81.2291 14.6222 82.7478 16.3135 82.7478L16.3663 82.7299V84.8919L16.3135 84.9098C13.3186 84.9098 10.8698 82.4619 10.8698 79.353C10.8698 76.3513 13.3186 73.9928 16.3135 73.9928Z" fill="#EA1D23"/>
<path fill-rule="evenodd" clip-rule="evenodd" d="M16.3663 73.9928L17.4057 74.1C19.8898 74.5824 21.7572 76.7265 21.7572 79.353C21.7572 82.0689 19.8898 84.2844 17.4057 84.7847L16.3663 84.8919V82.7299L17.5114 82.4798C18.6213 81.9616 19.4141 80.7645 19.4141 79.353C19.4141 78.013 18.6213 76.8873 17.5114 76.4049L16.3663 76.1726V73.9928Z" fill="#EA1D23"/>
<path fill-rule="evenodd" clip-rule="evenodd" d="M22.2152 74.1715C22.2152 74.1715 22.2152 74.1715 25.3687 74.1715H26.8661V76.1548H26.7252C26.5314 76.1548 26.1614 76.1548 25.4039 76.1548C25.4039 76.1548 25.4039 76.1548 25.4039 78.3167C25.4039 78.3167 25.4039 78.3167 26.0381 78.3167H26.8661V80.1928H26.3905C26.1438 80.1928 25.8267 80.1928 25.4039 80.1928C25.4039 80.1928 25.4039 80.1928 25.4039 82.5513C25.4039 82.6406 25.4039 82.6406 25.5096 82.6406C25.5096 82.6406 25.5096 82.6406 26.179 82.6406H26.8661V84.7132H26.6723C26.32 84.7132 25.6505 84.7132 24.294 84.7132C23.5365 84.7132 23.1665 84.338 23.1665 83.4982V76.1548C23.1665 76.1548 23.1665 76.1548 22.2152 76.1548C22.2152 76.1548 22.2152 76.1547 22.2152 74.1715Z" fill="#EA1D23"/>
<path fill-rule="evenodd" clip-rule="evenodd" d="M26.8661 74.1715H26.9014C28.9802 74.1715 30.1958 75.315 30.1958 77.0124C30.1958 78.0308 29.7201 78.6919 29.2621 79.1743C30.1077 79.5496 30.6538 80.4787 30.6538 81.515C30.6538 83.4982 29.1564 84.7132 27.0071 84.7132C27.0071 84.7132 27.0071 84.7132 26.9718 84.7132H26.8661V82.6406H27.0952C27.8527 82.6406 28.3108 82.1761 28.3108 81.4256C28.3108 80.6752 27.8527 80.1928 27.0952 80.1928C27.0952 80.1928 27.0952 80.1928 26.8838 80.1928H26.8661V78.3167H26.9014C27.5708 78.3167 27.9408 77.8522 27.9408 77.1911C27.9408 76.53 27.5708 76.1548 26.9014 76.1548C26.9014 76.1548 26.9014 76.1548 26.8838 76.1548H26.8661V74.1715Z" fill="#EA1D23"/>
<path fill-rule="evenodd" clip-rule="evenodd" d="M34.97 74.1715C34.97 74.1715 34.97 74.1715 35.9213 74.1715H36.0975V77.1911C36.0094 77.3876 35.9037 77.6556 35.9037 77.9415C35.9037 77.9415 35.9037 77.9415 35.1638 80.1034C35.1638 80.1034 35.1638 80.1034 35.9565 80.1034H36.0975V82.0867H35.5866C35.3047 82.0867 34.97 82.0867 34.6 82.0867C34.6 82.0867 34.6 82.0867 33.9482 83.7841C33.7544 84.4273 33.3844 84.7132 32.6269 84.7132C32.6269 84.7132 32.6269 84.7132 31.2175 84.7132C31.2175 84.7132 31.2175 84.7132 31.2175 82.6406C31.2175 82.6406 31.2175 82.6406 31.6932 82.6406C31.887 82.6406 31.887 82.6406 31.9751 82.5513C31.9751 82.5513 31.9751 82.5513 34.97 74.1715Z" fill="#EA1D23"/>
<path fill-rule="evenodd" clip-rule="evenodd" d="M36.0975 74.1715H37.225C37.225 74.1715 37.225 74.1715 40.2199 82.5513C40.308 82.6406 40.308 82.6406 40.5018 82.6406C40.5018 82.6406 40.5018 82.6406 40.8718 82.6406C40.8718 82.6406 40.8718 82.6406 40.8718 84.7132C40.8718 84.7132 40.8718 84.7132 39.5681 84.7132C38.8106 84.7132 38.4406 84.4273 38.2468 83.6769C38.2468 83.6769 38.2468 83.6769 37.595 82.0867C37.595 82.0867 37.595 82.0867 36.3265 82.0867H36.0975V80.1034H37.0312C37.0312 80.1034 37.0312 80.1034 36.2913 77.9415C36.2913 77.6556 36.1856 77.3876 36.0975 77.1911V74.1715Z" fill="#EA1D23"/>
<path fill-rule="evenodd" clip-rule="evenodd" d="M44.946 74.2617C44.946 74.2617 44.946 74.2617 53.1027 74.2617C53.8603 74.2617 54.3183 74.6548 54.3183 75.4946C54.3183 75.4946 54.3183 75.4946 54.3183 82.6415C54.3183 82.7309 54.3183 82.7309 54.424 82.7309C54.424 82.7309 54.424 82.7309 55.1639 82.7309C55.1639 82.7309 55.1639 82.7309 55.1639 84.8035C55.1639 84.8035 55.1639 84.8035 53.2084 84.8035C52.3628 84.8035 51.9752 84.4283 51.9752 83.5885C51.9752 83.5885 51.9752 83.5885 51.9752 76.3522C51.9752 76.3522 51.9752 76.245 51.8872 76.245C51.8872 76.245 51.8872 76.245 48.1347 76.245C48.1347 76.245 48.1347 76.245 48.1347 84.8035C48.1347 84.8035 48.1347 84.8035 45.8797 84.8035C45.8797 84.8035 45.8797 84.8035 45.8797 76.245C45.8797 76.245 45.8797 76.245 44.946 76.245C44.946 76.245 44.946 76.245 44.946 74.2617Z" fill="#EA1D23"/>
<path fill-rule="evenodd" clip-rule="evenodd" d="M61.0833 74.0831H61.1185V76.2629L61.0833 76.245C59.3745 76.245 58.0708 77.6565 58.0708 79.4433C58.0708 81.3193 59.3745 82.8381 61.0833 82.8381L61.1185 82.8202V84.9821L61.0833 85C58.0708 85 55.7277 82.5522 55.7277 79.4433C55.7277 76.4415 58.0708 74.0831 61.0833 74.0831Z" fill="#EA1D23"/>
<path fill-rule="evenodd" clip-rule="evenodd" d="M61.1185 74.0831L62.1932 74.1903C64.7124 74.6727 66.5094 76.8168 66.5094 79.4433C66.5094 82.1591 64.7124 84.3747 62.1932 84.8749L61.1185 84.9821V82.8202L62.3165 82.5701C63.4264 82.0519 64.1663 80.8548 64.1663 79.4433C64.1663 78.1032 63.4264 76.9776 62.3165 76.4952L61.1185 76.2629V74.0831Z" fill="#EA1D23"/>
<path fill-rule="evenodd" clip-rule="evenodd" d="M66.985 74.2617C66.985 74.2617 66.985 74.2617 69.0462 74.2617C69.8038 74.2617 70.1737 74.6548 70.1737 75.4946C70.1737 75.4946 70.1737 75.4946 70.1737 82.6415C70.1737 82.7309 70.1737 82.7309 70.2618 82.7309C70.2618 82.7309 70.2618 82.7309 72.9749 82.7309C72.9749 82.7309 72.9749 82.7309 72.9749 74.2617C72.9749 74.2617 72.9749 74.2617 75.2298 74.2617C75.2298 74.2617 75.2298 74.2617 75.2298 82.7309C75.2298 82.7309 75.2298 82.7309 77.9605 82.7309C78.0486 82.7309 78.0486 82.7309 78.0486 82.6415C78.0486 82.6415 78.0486 82.6415 78.0486 75.4946C78.0486 74.6548 78.4186 74.2617 79.1761 74.2617C79.1761 74.2617 79.1761 74.2617 81.2373 74.2617C81.2373 74.2617 81.2373 74.2617 81.2373 76.245C81.2373 76.245 81.2373 76.245 80.3917 76.245C80.286 76.245 80.286 76.3522 80.286 76.3522C80.286 76.3522 80.286 76.3522 80.286 83.5885C80.286 84.4283 79.916 84.8035 79.1761 84.8035C79.1761 84.8035 79.1761 84.8035 69.1343 84.8035C68.2887 84.8035 67.9187 84.4283 67.9187 83.5885C67.9187 83.5885 67.9187 83.5885 67.9187 76.3522C67.9187 76.3522 67.9187 76.245 67.8306 76.245C67.8306 76.245 67.8306 76.245 66.985 76.245C66.985 76.245 66.985 76.245 66.985 74.2617Z" fill="#EA1D23"/>
<path fill-rule="evenodd" clip-rule="evenodd" d="M83.0166 74.2617C83.0166 74.2617 83.0166 74.2617 90.0459 74.2617C90.8915 74.2617 91.1734 74.6548 91.1734 75.4052C91.1734 75.4052 91.1734 75.4052 91.1734 77.192H89.1122C89.1122 77.192 89.1122 77.192 89.1122 76.3522C89.1122 76.245 89.1122 76.245 89.0065 76.245C89.0065 76.245 89.0065 76.245 87.7028 76.245C87.7028 76.245 87.7028 76.245 87.7028 84.8035C87.7028 84.8035 87.7028 84.8035 85.4478 84.8035C85.4478 84.8035 85.4478 84.8035 85.4478 76.245C85.4478 76.245 85.4478 76.245 84.1441 76.245C84.0384 76.245 84.0384 76.245 84.0384 76.3522C84.0384 76.3522 84.0384 76.3522 84.0384 77.192C84.0384 77.192 84.0384 77.192 81.9772 77.192C81.9772 77.192 81.9772 77.192 81.9772 75.4052C81.9772 74.6548 82.2591 74.2617 83.0166 74.2617Z" fill="#EA1D23"/>
<path fill-rule="evenodd" clip-rule="evenodd" d="M94.0802 74.2617C94.0802 74.2617 94.0802 74.2617 95.0315 74.2617H95.2077V77.2813C95.102 77.4779 95.0139 77.7459 95.0139 78.0317C95.0139 78.0317 95.0139 78.0317 94.2564 80.1937C94.2564 80.1937 94.2564 80.1937 95.0491 80.1937H95.2077V82.177H94.6968C94.3973 82.177 94.0802 82.177 93.6926 82.177C93.6926 82.177 93.6926 82.177 93.0408 83.7672C92.8646 84.5176 92.477 84.8035 91.7371 84.8035C91.7371 84.8035 91.7371 84.8035 90.3277 84.8035C90.3277 84.8035 90.3277 84.8035 90.3277 82.7309C90.3277 82.7309 90.3277 82.7309 90.8034 82.7309C90.9796 82.7309 90.9796 82.7309 91.0853 82.6415C91.0853 82.6415 91.0853 82.6415 94.0802 74.2796V74.2617Z" fill="#EA1D23"/>
<path fill-rule="evenodd" clip-rule="evenodd" d="M95.2077 74.2617H96.3176C96.3176 74.2617 96.3176 74.2617 99.3301 82.6415C99.4182 82.7309 99.4182 82.7309 99.612 82.7309H99.982C99.982 82.7309 99.982 82.7309 99.982 84.8035C99.982 84.8035 99.982 84.8035 98.6783 84.8035C97.9208 84.8035 97.5508 84.5176 97.357 83.7672C97.357 83.7672 97.357 83.7672 96.7052 82.177C96.7052 82.177 96.7052 82.177 95.4367 82.177H95.2077V80.1937H96.1414C96.1414 80.1937 96.1414 80.1937 95.3839 78.0317C95.3839 77.7459 95.2958 77.4779 95.2077 77.2813V74.2617Z" fill="#EA1D23"/>
<path fill-rule="evenodd" clip-rule="evenodd" d="M67.3475 18.7375C67.5391 18.6737 67.7944 18.8013 68.0498 19.1525C68.0498 19.1525 68.0498 19.1525 79.6051 30.3886C80.2754 31.0589 80.2754 32.0804 79.6051 32.5911C79.6051 32.5911 79.6051 32.5911 68.0498 44.0187C67.7944 44.3379 67.5391 44.4337 67.3475 44.3379C67.156 44.2422 67.0283 43.923 67.0283 43.508V19.4717C67.0283 19.0567 67.156 18.8013 67.3475 18.7375Z" fill="#EA1D23"/>
<path fill-rule="evenodd" clip-rule="evenodd" d="M47.5887 0H48.4187L49.1848 0.319208C49.1848 0.319208 49.1848 0.319208 61.0912 12.098C61.602 12.7683 61.4104 13.2471 60.5805 13.2471C60.5805 13.2471 60.5805 13.2471 55.6328 13.2471C54.8028 13.2471 54.1006 13.9494 54.1006 14.7793C54.1006 14.7793 54.1006 14.7793 54.1006 23.5256C54.1006 24.3555 53.4302 25.0259 52.4088 25.0259C52.4088 25.0259 52.4088 25.0259 43.7583 25.0259C42.8964 25.0259 42.2261 24.3555 42.2261 23.5256C42.2261 23.5256 42.2261 23.5256 42.2261 14.7793C42.2261 13.9494 41.5557 13.2471 40.6939 13.2471H35.4269C34.5651 13.2471 34.4055 12.7683 34.9162 12.098C34.9162 12.098 34.9162 12.098 46.8226 0.319208L47.5887 0Z" fill="#EA1D23"/>
<path fill-rule="evenodd" clip-rule="evenodd" d="M28.9788 18.4821C29.1703 18.6098 29.298 18.8971 29.298 19.3121V43.8272C29.298 44.2741 29.1703 44.5295 28.9788 44.5933C28.7554 44.6891 28.4681 44.5933 28.117 44.3379C28.117 44.3379 28.117 44.3379 16.402 32.5911C15.7317 32.0804 15.7317 31.0589 16.402 30.3886C16.402 30.3886 16.402 30.3886 28.117 18.8013C28.4681 18.4821 28.7554 18.3864 28.9788 18.4821Z" fill="#EA1D23"/>
<path fill-rule="evenodd" clip-rule="evenodd" d="M43.7581 37.7942C43.7581 37.7942 43.7581 37.7942 52.4087 37.7942C53.4301 37.7942 54.1324 38.4645 54.1324 39.3264C54.1324 39.3264 54.1324 39.3264 54.1324 48.5515C54.1324 49.573 54.8027 50.2433 55.6327 50.2433H60.2293C61.0911 50.2433 61.4103 50.7221 60.74 51.2328C60.74 51.2328 60.74 51.2328 49.1847 62.8201C48.8335 63.1712 48.4186 63.3308 48.0036 63.3308C47.5886 63.3308 47.1417 63.1712 46.8225 62.8201C46.8225 62.8201 46.8225 62.8201 35.2672 51.2328C34.565 50.7221 34.9161 50.2433 35.746 50.2433C35.746 50.2433 35.746 50.2433 40.6938 50.2433C41.5556 50.2433 42.2259 49.573 42.2259 48.5515C42.2259 48.5515 42.2259 48.5515 42.2259 39.3264C42.2259 38.4645 42.8963 37.7942 43.7581 37.7942Z" fill="#EA1D23"/>
</svg>
