<svg width="79" height="85" viewBox="0 0 79 85" fill="none" xmlns="http://www.w3.org/2000/svg">
<path d="M1.93345 76.0301C2.01173 76.0199 2.08837 76.0584 2.12718 76.1274L4.82476 80.7491H4.95552L7.24629 76.1907C7.29394 76.0827 7.40541 76.0179 7.52234 76.0301H9.16898C9.23137 76.0279 9.29018 76.0593 9.32318 76.1126C9.35618 76.1658 9.35832 76.2327 9.3288 76.288L4.58261 84.7238C4.52841 84.8241 4.41948 84.8816 4.30655 84.8698H2.69381C2.51462 84.8698 2.50009 84.7579 2.56305 84.6265L3.83678 82.4373L0.0252907 76.2393C-0.037669 76.1274 0.0252909 76.0301 0.122152 76.0301H1.92861H1.93345Z" fill="#303335"/>
<path d="M12.162 76.0301C12.2245 76.0221 12.2872 76.0436 12.3317 76.0883C12.3762 76.1331 12.3976 76.196 12.3896 76.2588V79.7275L16.0219 76.1615C16.1428 76.0696 16.2919 76.0231 16.4433 76.0301H18.4144C18.5597 76.0301 18.6081 76.1615 18.4967 76.2734L14.6223 79.9075L18.7243 84.6266C18.7723 84.6638 18.7898 84.7284 18.7673 84.7849C18.7448 84.8414 18.6877 84.876 18.6275 84.8698H16.6903C16.5386 84.8827 16.3897 84.8232 16.2883 84.7093L13.2129 81.0703L12.3799 81.8486V84.646C12.388 84.7088 12.3666 84.7717 12.322 84.8165C12.2775 84.8612 12.2148 84.8827 12.1523 84.8747H10.7333C10.6708 84.8827 10.6082 84.8612 10.5636 84.8165C10.5191 84.7717 10.4977 84.7088 10.5057 84.646V76.2491C10.4977 76.1863 10.5191 76.1233 10.5636 76.0786C10.6082 76.0338 10.6708 76.0124 10.7333 76.0204H12.1523L12.162 76.0301Z" fill="#303335"/>
<path d="M24.0905 76.0301C24.9752 75.9865 25.8396 76.3059 26.4853 76.915C27.1309 77.5242 27.5024 78.3708 27.5145 79.2605C27.5145 81.1432 26.0616 82.52 24.0905 82.52H21.7513V84.646C21.7593 84.7088 21.7379 84.7717 21.6934 84.8165C21.6488 84.8612 21.5861 84.8827 21.5237 84.8747H20.1046C20.0422 84.8827 19.9795 84.8612 19.9349 84.8165C19.8904 84.7717 19.869 84.7088 19.877 84.646V76.2491C19.869 76.1863 19.8904 76.1233 19.9349 76.0786C19.9795 76.0338 20.0422 76.0124 20.1046 76.0204H24.0953L24.0905 76.0301ZM24.0905 80.7346C24.4953 80.7739 24.8973 80.6364 25.194 80.357C25.4907 80.0776 25.6533 79.6834 25.6403 79.2751C25.6582 78.8653 25.4971 78.4681 25.1992 78.1876C24.9014 77.9071 24.4964 77.7712 24.0905 77.8156H21.7513V80.7346H24.0905Z" fill="#303335"/>
<path d="M36.3385 76.0301C36.401 76.0221 36.4636 76.0436 36.5082 76.0883C36.5527 76.1331 36.5741 76.196 36.5661 76.2588V84.646C36.5741 84.7088 36.5527 84.7717 36.5082 84.8165C36.4636 84.8612 36.401 84.8827 36.3385 84.8747H34.9195C34.857 84.8827 34.7943 84.8612 34.7498 84.8165C34.7052 84.7717 34.6838 84.7088 34.6919 84.646V77.7913H30.7835V84.6363C30.7915 84.699 30.7701 84.762 30.7256 84.8067C30.681 84.8515 30.6184 84.873 30.5559 84.8649H29.1369C29.0744 84.873 29.0117 84.8515 28.9672 84.8067C28.9226 84.762 28.9012 84.699 28.9092 84.6363V76.2491C28.9012 76.1863 28.9226 76.1233 28.9672 76.0786C29.0117 76.0338 29.0744 76.0124 29.1369 76.0204H36.3385V76.0301Z" fill="#303335"/>
<path d="M42.867 75.8939C45.3559 75.95 47.334 78.0119 47.2979 80.5125C47.2618 83.013 45.2249 85.0164 42.7354 84.9999C40.2459 84.9834 38.2355 82.9532 38.2322 80.4524C38.2319 79.2263 38.7233 78.0519 39.5954 77.1941C40.4675 76.3364 41.6468 75.8677 42.867 75.8939ZM40.121 80.4524C40.1423 81.9639 41.3747 83.1745 42.8795 83.1621C44.3844 83.1496 45.5968 81.9188 45.5933 80.4071C45.5899 78.8954 44.3719 77.6702 42.867 77.6647C42.1254 77.6366 41.406 77.9223 40.884 78.4522C40.362 78.9821 40.0852 79.7077 40.121 80.4524Z" fill="#303335"/>
<path d="M53.759 83.0941V76.2491C53.751 76.1863 53.7724 76.1233 53.8169 76.0786C53.8615 76.0338 53.9242 76.0124 53.9866 76.0204H55.3766C55.4391 76.0124 55.5017 76.0338 55.5463 76.0786C55.5908 76.1233 55.6122 76.1863 55.6042 76.2491V83.0941H58.3648V76.2491C58.3567 76.1863 58.3781 76.1233 58.4227 76.0786C58.4672 76.0338 58.5299 76.0124 58.5924 76.0204H59.9823C60.0448 76.0124 60.1075 76.0338 60.152 76.0786C60.1966 76.1233 60.218 76.1863 60.21 76.2491V84.6363C60.218 84.699 60.1966 84.762 60.152 84.8067C60.1075 84.8515 60.0448 84.873 59.9823 84.8649H49.3809C49.3201 84.8663 49.2614 84.8426 49.2185 84.7994C49.1755 84.7563 49.1519 84.6973 49.1533 84.6363V76.2491C49.1453 76.1863 49.1666 76.1233 49.2112 76.0786C49.2557 76.0338 49.3184 76.0124 49.3809 76.0204H50.7708C50.8333 76.0124 50.896 76.0338 50.9405 76.0786C50.9851 76.1233 51.0065 76.1863 50.9985 76.2491V83.0941H53.759Z" fill="#303335"/>
<path d="M69.1745 76.0301C69.237 76.0221 69.2996 76.0435 69.3442 76.0883C69.3887 76.133 69.4101 76.196 69.4021 76.2588V77.5869C69.4101 77.6497 69.3887 77.7126 69.3442 77.7574C69.2996 77.8021 69.237 77.8236 69.1745 77.8156H66.3655V84.6265C66.3735 84.6893 66.3521 84.7522 66.3076 84.797C66.263 84.8417 66.2004 84.8632 66.1379 84.8552H64.7189C64.6564 84.8632 64.5937 84.8417 64.5492 84.797C64.5046 84.7522 64.4832 84.6893 64.4912 84.6265V77.8156H61.6968C61.6343 77.8236 61.5717 77.8021 61.5271 77.7574C61.4826 77.7126 61.4612 77.6497 61.4692 77.5869V76.2588C61.4612 76.196 61.4826 76.133 61.5271 76.0883C61.5717 76.0435 61.6343 76.0221 61.6968 76.0301H69.189H69.1745Z" fill="#303335"/>
<path d="M76.0806 83.1135H71.688L71.0729 84.6703C71.0356 84.7907 70.9222 84.8706 70.7968 84.8649H69.1986C69.0388 84.8649 68.9904 84.7822 69.0388 84.6362L72.8358 76.1517C72.868 76.066 72.9531 76.0123 73.044 76.0204H74.8844C74.9753 76.0123 75.0604 76.066 75.0926 76.1517L78.7249 84.6022C78.7502 84.661 78.7434 84.7288 78.7069 84.7813C78.6704 84.8338 78.6094 84.8636 78.5457 84.86H77.0105C76.8602 84.8652 76.7236 84.773 76.6715 84.6314L76.0806 83.1135ZM72.366 81.4108H75.4316L74.0126 77.7766H73.8334L72.366 81.4108Z" fill="#303335"/>
<path d="M59.2982 36.8809L38.0949 32.0614C32.6309 30.823 28.8002 25.8812 28.9467 20.26C29.0933 14.6387 33.1763 9.90487 38.6974 8.95516C44.2184 8.00544 49.6385 11.1046 51.641 16.3561C53.6435 21.6077 51.6702 27.5479 46.9287 30.5418C46.8382 30.6096 46.7944 30.7235 46.8161 30.8347C46.8378 30.946 46.921 31.0349 47.0303 31.0634L56.4628 33.2067C56.6872 33.2589 56.9213 33.1747 57.0615 32.9912C61.6306 26.9327 62.5049 18.8405 59.3359 11.9395C56.1669 5.03841 49.4697 0.450075 41.9131 0.00289443H41.0319C32.2254 -0.13537 24.0836 4.68915 19.9487 12.4959C15.8139 20.3027 16.3826 29.7765 21.4214 37.0283L40.2864 64.0744C40.3693 64.1885 40.5015 64.256 40.6422 64.256C40.7829 64.256 40.9151 64.1885 40.9981 64.0744L59.5693 37.5953C59.6679 37.4729 59.6942 37.307 59.6384 37.1599C59.5826 37.0127 59.453 36.9065 59.2982 36.8809Z" fill="#FFC627"/>
</svg>
