<svg width="102" height="110" viewBox="0 0 102 110" fill="none" xmlns="http://www.w3.org/2000/svg">
<path d="M2.50212 98.3919C2.60342 98.3787 2.7026 98.4285 2.75282 98.5178L6.24381 104.499H6.41303L9.37755 98.5997C9.43922 98.46 9.58347 98.3761 9.7348 98.3919H11.8657C11.9465 98.389 12.0226 98.4297 12.0653 98.4986C12.108 98.5675 12.1108 98.6541 12.0726 98.7256L5.93043 109.643C5.8603 109.772 5.71932 109.847 5.57319 109.831H3.48611C3.25422 109.831 3.23541 109.687 3.31689 109.517L4.96524 106.684L0.0327292 98.6626C-0.0487481 98.5178 0.0327294 98.3919 0.158079 98.3919H2.49585H2.50212Z" fill="#303335"/>
<path d="M15.7391 98.3919C15.82 98.3815 15.9011 98.4093 15.9587 98.4672C16.0164 98.5251 16.0441 98.6066 16.0337 98.6878V103.177L20.7343 98.5619C20.8907 98.443 21.0836 98.3829 21.2796 98.3919H23.8304C24.0185 98.3919 24.0811 98.5619 23.937 98.7067L18.923 103.41L24.2316 109.517C24.2936 109.565 24.3162 109.649 24.2871 109.722C24.258 109.795 24.1842 109.84 24.1062 109.832H21.5992C21.403 109.848 21.2103 109.771 21.079 109.624L17.0992 104.914L16.0212 105.922V109.542C16.0315 109.623 16.0038 109.705 15.9462 109.763C15.8886 109.82 15.8075 109.848 15.7266 109.838H13.8902C13.8094 109.848 13.7283 109.82 13.6706 109.763C13.613 109.705 13.5853 109.623 13.5956 109.542V98.6753C13.5853 98.594 13.613 98.5126 13.6706 98.4546C13.7283 98.3967 13.8094 98.3689 13.8902 98.3793H15.7266L15.7391 98.3919Z" fill="#303335"/>
<path d="M31.1759 98.3919C32.3209 98.3355 33.4395 98.7488 34.2751 99.5371C35.1106 100.325 35.5914 101.421 35.607 102.572C35.607 105.009 33.7268 106.791 31.1759 106.791H28.1487V109.542C28.1591 109.623 28.1314 109.705 28.0738 109.763C28.0161 109.82 27.935 109.848 27.8542 109.838H26.0178C25.9369 109.848 25.8558 109.82 25.7982 109.763C25.7405 109.705 25.7128 109.623 25.7232 109.542V98.6753C25.7128 98.594 25.7405 98.5126 25.7982 98.4546C25.8558 98.3967 25.9369 98.3689 26.0178 98.3793H31.1822L31.1759 98.3919ZM31.1759 104.48C31.6998 104.531 32.2201 104.353 32.604 103.991C32.988 103.63 33.1984 103.12 33.1815 102.591C33.2047 102.061 32.9963 101.547 32.6108 101.184C32.2253 100.821 31.7012 100.645 31.1759 100.703H28.1487V104.48H31.1759Z" fill="#303335"/>
<path d="M47.0263 98.3919C47.1071 98.3815 47.1882 98.4093 47.2459 98.4672C47.3035 98.5251 47.3312 98.6066 47.3208 98.6878V109.542C47.3312 109.623 47.3035 109.705 47.2459 109.763C47.1882 109.82 47.1071 109.848 47.0263 109.838H45.1899C45.109 109.848 45.0279 109.82 44.9703 109.763C44.9126 109.705 44.8849 109.623 44.8953 109.542V100.671H39.8374V109.529C39.8478 109.611 39.8201 109.692 39.7625 109.75C39.7048 109.808 39.6237 109.836 39.5429 109.825H37.7065C37.6256 109.836 37.5445 109.808 37.4869 109.75C37.4292 109.692 37.4016 109.611 37.4119 109.529V98.6753C37.4016 98.594 37.4292 98.5126 37.4869 98.4546C37.5445 98.3967 37.6256 98.3689 37.7065 98.3793H47.0263V98.3919Z" fill="#303335"/>
<path d="M55.4749 98.2156C58.6959 98.2883 61.2558 100.957 61.209 104.193C61.1623 107.429 58.5263 110.021 55.3046 110C52.0829 109.979 49.4812 107.351 49.4769 104.115C49.4766 102.528 50.1125 101.008 51.2411 99.8983C52.3697 98.7883 53.8958 98.1818 55.4749 98.2156ZM51.9213 104.115C51.9488 106.071 53.5437 107.638 55.4912 107.622C57.4386 107.605 59.0076 106.013 59.0031 104.056C58.9987 102.1 57.4224 100.514 55.4749 100.507C54.5152 100.471 53.5842 100.841 52.9087 101.526C52.2331 102.212 51.8749 103.151 51.9213 104.115Z" fill="#303335"/>
<path d="M69.5704 107.534V98.6753C69.5601 98.594 69.5877 98.5126 69.6454 98.4546C69.703 98.3967 69.7841 98.3689 69.865 98.3793H71.6638C71.7446 98.3689 71.8257 98.3967 71.8834 98.4546C71.941 98.5126 71.9687 98.594 71.9583 98.6753V107.534H75.5308V98.6753C75.5204 98.594 75.5481 98.5126 75.6058 98.4546C75.6634 98.3967 75.7445 98.3689 75.8254 98.3793H77.6241C77.705 98.3689 77.7861 98.3967 77.8438 98.4546C77.9014 98.5126 77.9291 98.594 77.9187 98.6753V109.529C77.9291 109.611 77.9014 109.692 77.8438 109.75C77.7861 109.808 77.705 109.836 77.6241 109.825H63.9046C63.826 109.827 63.75 109.796 63.6944 109.74C63.6388 109.685 63.6083 109.608 63.61 109.529V98.6753C63.5997 98.594 63.6274 98.5126 63.685 98.4546C63.7427 98.3967 63.8238 98.3689 63.9046 98.3793H65.7034C65.7843 98.3689 65.8654 98.3967 65.923 98.4546C65.9806 98.5126 66.0083 98.594 65.998 98.6753V107.534H69.5704Z" fill="#303335"/>
<path d="M89.52 98.3919C89.6008 98.3815 89.6819 98.4093 89.7396 98.4672C89.7972 98.5251 89.8249 98.6066 89.8145 98.6878V100.407C89.8249 100.488 89.7972 100.569 89.7396 100.627C89.6819 100.685 89.6008 100.713 89.52 100.702H85.8848V109.517C85.8952 109.598 85.8675 109.679 85.8099 109.737C85.7522 109.795 85.6711 109.823 85.5903 109.813H83.7539C83.673 109.823 83.5919 109.795 83.5343 109.737C83.4766 109.679 83.4489 109.598 83.4593 109.517V100.702H79.843C79.7621 100.713 79.681 100.685 79.6234 100.627C79.5657 100.569 79.538 100.488 79.5484 100.407V98.6878C79.538 98.6066 79.5657 98.5251 79.6234 98.4672C79.681 98.4093 79.7621 98.3815 79.843 98.3919H89.5388H89.52Z" fill="#303335"/>
<path d="M98.4573 107.559H92.7727L91.9767 109.573C91.9285 109.729 91.7817 109.833 91.6195 109.825H89.5512C89.3444 109.825 89.2817 109.718 89.3444 109.529L94.2581 98.5493C94.2998 98.4383 94.41 98.3688 94.5276 98.3793H96.9092C97.0269 98.3688 97.137 98.4383 97.1787 98.5493L101.879 109.485C101.912 109.561 101.903 109.649 101.856 109.717C101.809 109.785 101.73 109.823 101.647 109.819H99.6607C99.4662 109.826 99.2894 109.706 99.2219 109.523L98.4573 107.559ZM93.6501 105.355H97.6175L95.7811 100.652H95.5492L93.6501 105.355Z" fill="#303335"/>
<path d="M76.7389 47.7282L49.2993 41.4912C42.2283 39.8886 37.2708 33.4933 37.4605 26.2188C37.6502 18.9442 42.9341 12.8181 50.079 11.589C57.2238 10.36 64.2381 14.3706 66.8295 21.1668C69.421 27.9629 66.8674 35.6502 60.7313 39.5247C60.6141 39.6124 60.5575 39.7598 60.5855 39.9037C60.6136 40.0477 60.7214 40.1628 60.8628 40.1997L73.0696 42.9734C73.36 43.041 73.6629 42.932 73.8444 42.6945C79.7574 34.8541 80.8887 24.3818 76.7877 15.4511C72.6866 6.5203 64.0196 0.58245 54.2405 0.00374573H53.1002C41.7036 -0.175184 31.167 6.06831 25.816 16.1712C20.465 26.2741 21.201 38.5343 27.7219 47.919L52.1354 82.9199C52.2427 83.0675 52.4138 83.1548 52.5959 83.1548C52.7779 83.1548 52.949 83.0675 53.0564 82.9199L77.0898 48.6528C77.2174 48.4943 77.2514 48.2797 77.1791 48.0892C77.1069 47.8988 76.9392 47.7613 76.7389 47.7282Z" fill="#FFC627"/>
</svg>
