<svg width="42" height="41" viewBox="0 0 42 41" fill="none" xmlns="http://www.w3.org/2000/svg">
<path fill-rule="evenodd" clip-rule="evenodd" d="M33.2414 12.074C33.3624 12.0337 33.5237 12.1144 33.685 12.3361C33.685 12.3361 33.685 12.3361 40.9833 19.4329C41.4067 19.8563 41.4067 20.5015 40.9833 20.824C40.9833 20.824 40.9833 20.824 33.685 28.0418C33.5237 28.2434 33.3624 28.3039 33.2414 28.2434C33.1204 28.1829 33.0398 27.9813 33.0398 27.7192V12.5378C33.0398 12.2757 33.1204 12.1144 33.2414 12.074Z" fill="#FEFFFF"/>
<path fill-rule="evenodd" clip-rule="evenodd" d="M20.7616 0.239372H21.2858L21.7697 0.440985C21.7697 0.440985 21.7697 0.440985 29.2898 7.8805C29.6124 8.30389 29.4914 8.60631 28.9672 8.60631C28.9672 8.60631 28.9672 8.60631 25.8422 8.60631C25.3181 8.60631 24.8745 9.04986 24.8745 9.57405C24.8745 9.57405 24.8745 9.57405 24.8745 15.0982C24.8745 15.6224 24.4511 16.0458 23.806 16.0458C23.806 16.0458 23.806 16.0458 18.3422 16.0458C17.7979 16.0458 17.3745 15.6224 17.3745 15.0982C17.3745 15.0982 17.3745 15.0982 17.3745 9.57405C17.3745 9.04986 16.9511 8.60631 16.4068 8.60631H13.0802C12.5358 8.60631 12.435 8.30389 12.7576 7.8805C12.7576 7.8805 12.7576 7.8805 20.2777 0.440985L20.7616 0.239372Z" fill="#FEFFFF"/>
<path fill-rule="evenodd" clip-rule="evenodd" d="M9.00755 11.9128C9.12852 11.9934 9.20916 12.1749 9.20916 12.437V27.9208C9.20916 28.2031 9.12852 28.3644 9.00755 28.4047C8.86642 28.4652 8.68497 28.4047 8.46319 28.2434C8.46319 28.2434 8.46319 28.2434 1.064 20.824C0.640613 20.5015 0.640613 19.8563 1.064 19.4329C1.064 19.4329 1.064 19.4329 8.46319 12.1144C8.68497 11.9128 8.86642 11.8523 9.00755 11.9128Z" fill="#FEFFFF"/>
<path fill-rule="evenodd" clip-rule="evenodd" d="M18.3423 24.1103C18.3423 24.1103 18.3423 24.1103 23.806 24.1103C24.4511 24.1103 24.8947 24.5337 24.8947 25.0781C24.8947 25.0781 24.8947 25.0781 24.8947 30.9047C24.8947 31.5499 25.3181 31.9732 25.8423 31.9732H28.7455C29.2898 31.9732 29.4915 32.2757 29.0681 32.5982C29.0681 32.5982 29.0681 32.5982 21.7697 39.9168C21.5479 40.1386 21.2858 40.2394 21.0237 40.2394C20.7616 40.2394 20.4794 40.1386 20.2777 39.9168C20.2777 39.9168 20.2777 39.9168 12.9794 32.5982C12.5358 32.2757 12.7576 31.9732 13.2818 31.9732C13.2818 31.9732 13.2818 31.9732 16.4068 31.9732C16.9511 31.9732 17.3745 31.5499 17.3745 30.9047C17.3745 30.9047 17.3745 30.9047 17.3745 25.0781C17.3745 24.5337 17.7979 24.1103 18.3423 24.1103Z" fill="#FEFFFF"/>
</svg>
