<svg width="64" height="29" viewBox="0 0 64 29" fill="none" xmlns="http://www.w3.org/2000/svg">
<path fill-rule="evenodd" clip-rule="evenodd" d="M0.773682 1.01357C0.773682 1.01357 0.773682 1.01357 3.13255 1.01357C3.99949 1.01357 4.42287 1.43695 4.42287 2.40469C4.42287 2.40469 4.42287 2.40469 4.42287 5.79179C4.42287 5.79179 4.42287 5.79179 9.03981 5.79179C9.03981 5.79179 9.03981 5.79179 9.03981 2.40469C9.03981 1.43695 9.4632 1.01357 10.4309 1.01357C10.4309 1.01357 10.4309 1.01357 12.689 1.01357C12.689 1.01357 12.689 1.01357 12.689 3.25147C12.689 3.25147 12.689 3.25147 11.7213 3.25147L11.6205 3.35227C11.6205 3.35227 11.6205 3.35227 11.6205 12.9087C11.6205 12.9087 11.6205 12.9087 9.03981 12.9087C9.03981 12.9087 9.03981 12.9087 9.03981 8.1305C9.03981 8.1305 9.03981 8.1305 4.42287 8.1305C4.42287 8.1305 4.42287 8.1305 4.42287 12.9087C4.42287 12.9087 4.42287 12.9087 1.84223 12.9087C1.84223 12.9087 1.84223 12.9087 1.84223 3.35227C1.84223 3.35227 1.84223 3.25147 1.74142 3.25147C1.74142 3.25147 1.74142 3.25147 0.773682 3.25147C0.773682 3.25147 0.773682 3.25147 0.773682 1.01357Z" fill="#FEFFFF"/>
<path fill-rule="evenodd" clip-rule="evenodd" d="M19.4431 0.811951H19.5036V3.27163L19.4431 3.25147C17.5076 3.25147 16.0157 4.84421 16.0157 6.86034C16.0157 8.97727 17.5076 10.691 19.4431 10.691L19.5036 10.6708V13.1103L19.4431 13.1305C16.0157 13.1305 13.2133 10.3684 13.2133 6.86034C13.2133 3.47324 16.0157 0.811951 19.4431 0.811951Z" fill="#FEFFFF"/>
<path fill-rule="evenodd" clip-rule="evenodd" d="M19.5035 0.811951L20.6931 0.932918C23.5358 1.47727 25.6729 3.89663 25.6729 6.86034C25.6729 9.92485 23.5358 12.4249 20.6931 12.9894L19.5035 13.1103V10.6708L20.814 10.3886C22.0842 9.80389 22.9914 8.45308 22.9914 6.86034C22.9914 5.34824 22.0842 4.07808 20.814 3.53372L19.5035 3.27163V0.811951Z" fill="#FEFFFF"/>
<path fill-rule="evenodd" clip-rule="evenodd" d="M26.197 1.01357C26.197 1.01357 26.197 1.01357 29.8059 1.01357H31.5196V3.25147H31.3583C31.1365 3.25147 30.7132 3.25147 29.8462 3.25147C29.8462 3.25147 29.8462 3.25147 29.8462 5.69098C29.8462 5.69098 29.8462 5.69098 30.572 5.69098H31.5196V7.80792H30.9752C30.693 7.80792 30.3301 7.80792 29.8462 7.80792C29.8462 7.80792 29.8462 7.80792 29.8462 10.4692C29.8462 10.57 29.8462 10.57 29.9672 10.57C29.9672 10.57 29.9672 10.57 30.7333 10.57H31.5196V12.9087H31.2978C30.8946 12.9087 30.1285 12.9087 28.5761 12.9087C27.7091 12.9087 27.2857 12.4853 27.2857 11.5378V3.25147C27.2857 3.25147 27.2857 3.25147 26.197 3.25147C26.197 3.25147 26.197 3.25147 26.197 1.01357Z" fill="#FEFFFF"/>
<path fill-rule="evenodd" clip-rule="evenodd" d="M31.5197 1.01357H31.56C33.939 1.01357 35.3301 2.30389 35.3301 4.21921C35.3301 5.3684 34.7858 6.11437 34.2616 6.65873C35.2293 7.08211 35.8543 8.1305 35.8543 9.29986C35.8543 11.5378 34.1406 12.9087 31.6809 12.9087C31.6809 12.9087 31.6809 12.9087 31.6406 12.9087H31.5197V10.57H31.7818C32.6487 10.57 33.1729 10.0458 33.1729 9.19905C33.1729 8.35227 32.6487 7.80792 31.7818 7.80792C31.7818 7.80792 31.7818 7.80792 31.5398 7.80792H31.5197V5.69098H31.56C32.3261 5.69098 32.7495 5.16679 32.7495 4.42082C32.7495 3.67486 32.3261 3.25147 31.56 3.25147C31.56 3.25147 31.56 3.25147 31.5398 3.25147H31.5197V1.01357Z" fill="#FEFFFF"/>
<path fill-rule="evenodd" clip-rule="evenodd" d="M40.7939 1.01357C40.7939 1.01357 40.7939 1.01357 41.8826 1.01357H42.0842V4.42082C41.9834 4.6426 41.8624 4.94502 41.8624 5.2676C41.8624 5.2676 41.8624 5.2676 41.0156 7.70711C41.0156 7.70711 41.0156 7.70711 41.9229 7.70711H42.0842V9.94502H41.4995C41.1769 9.94502 40.7939 9.94502 40.3705 9.94502C40.3705 9.94502 40.3705 9.94502 39.6245 11.8603C39.4027 12.5861 38.9794 12.9087 38.1124 12.9087C38.1124 12.9087 38.1124 12.9087 36.4995 12.9087C36.4995 12.9087 36.4995 12.9087 36.4995 10.57C36.4995 10.57 36.4995 10.57 37.0439 10.57C37.2656 10.57 37.2656 10.57 37.3664 10.4692C37.3664 10.4692 37.3664 10.4692 40.7939 1.01357Z" fill="#FEFFFF"/>
<path fill-rule="evenodd" clip-rule="evenodd" d="M42.0841 1.01357H43.3744C43.3744 1.01357 43.3744 1.01357 46.8018 10.4692C46.9027 10.57 46.9027 10.57 47.1244 10.57C47.1244 10.57 47.1244 10.57 47.5478 10.57C47.5478 10.57 47.5478 10.57 47.5478 12.9087C47.5478 12.9087 47.5478 12.9087 46.0559 12.9087C45.1889 12.9087 44.7656 12.5861 44.5438 11.7394C44.5438 11.7394 44.5438 11.7394 43.7978 9.94502C43.7978 9.94502 43.7978 9.94502 42.3462 9.94502H42.0841V7.70711H43.1527C43.1527 7.70711 43.1527 7.70711 42.3059 5.2676C42.3059 4.94502 42.1849 4.6426 42.0841 4.42082V1.01357Z" fill="#FEFFFF"/>
<path fill-rule="evenodd" clip-rule="evenodd" d="M0.773682 16.2958C0.773682 16.2958 0.773682 16.2958 10.1084 16.2958C10.9753 16.2958 11.4995 16.7394 11.4995 17.687C11.4995 17.687 11.4995 17.687 11.4995 25.7515C11.4995 25.8523 11.4995 25.8523 11.6205 25.8523C11.6205 25.8523 11.6205 25.8523 12.4672 25.8523C12.4672 25.8523 12.4672 25.8523 12.4672 28.191C12.4672 28.191 12.4672 28.191 10.2293 28.191C9.26158 28.191 8.81804 27.7676 8.81804 26.82C8.81804 26.82 8.81804 26.82 8.81804 18.6547C8.81804 18.6547 8.81804 18.5337 8.71723 18.5337C8.71723 18.5337 8.71723 18.5337 4.42287 18.5337C4.42287 18.5337 4.42287 18.5337 4.42287 28.191C4.42287 28.191 4.42287 28.191 1.84223 28.191C1.84223 28.191 1.84223 28.191 1.84223 18.5337C1.84223 18.5337 1.84223 18.5337 0.773682 18.5337C0.773682 18.5337 0.773682 18.5337 0.773682 16.2958Z" fill="#FEFFFF"/>
<path fill-rule="evenodd" clip-rule="evenodd" d="M19.2415 16.0942H19.2818V18.5539L19.2415 18.5337C17.2858 18.5337 15.7939 20.1265 15.7939 22.1426C15.7939 24.2595 17.2858 25.9732 19.2415 25.9732L19.2818 25.9531V28.3926L19.2415 28.4128C15.7939 28.4128 13.1124 25.6507 13.1124 22.1426C13.1124 18.7555 15.7939 16.0942 19.2415 16.0942Z" fill="#FEFFFF"/>
<path fill-rule="evenodd" clip-rule="evenodd" d="M19.2817 16.0942L20.5116 16.2152C23.3946 16.7595 25.4511 19.1789 25.4511 22.1426C25.4511 25.2071 23.3946 27.7071 20.5116 28.2716L19.2817 28.3926V25.9531L20.6527 25.6708C21.9229 25.0861 22.7696 23.7353 22.7696 22.1426C22.7696 20.6305 21.9229 19.3603 20.6527 18.816L19.2817 18.5539V16.0942Z" fill="#FEFFFF"/>
<path fill-rule="evenodd" clip-rule="evenodd" d="M25.9955 16.2958C25.9955 16.2958 25.9955 16.2958 28.3544 16.2958C29.2213 16.2958 29.6447 16.7394 29.6447 17.687C29.6447 17.687 29.6447 17.687 29.6447 25.7515C29.6447 25.8523 29.6447 25.8523 29.7455 25.8523C29.7455 25.8523 29.7455 25.8523 32.8503 25.8523C32.8503 25.8523 32.8503 25.8523 32.8503 16.2958C32.8503 16.2958 32.8503 16.2958 35.431 16.2958C35.431 16.2958 35.431 16.2958 35.431 25.8523C35.431 25.8523 35.431 25.8523 38.556 25.8523C38.6568 25.8523 38.6568 25.8523 38.6568 25.7515C38.6568 25.7515 38.6568 25.7515 38.6568 17.687C38.6568 16.7394 39.0802 16.2958 39.9471 16.2958C39.9471 16.2958 39.9471 16.2958 42.306 16.2958C42.306 16.2958 42.306 16.2958 42.306 18.5337C42.306 18.5337 42.306 18.5337 41.3382 18.5337C41.2173 18.5337 41.2173 18.6547 41.2173 18.6547C41.2173 18.6547 41.2173 18.6547 41.2173 26.82C41.2173 27.7676 40.7939 28.191 39.9471 28.191C39.9471 28.191 39.9471 28.191 28.4552 28.191C27.4874 28.191 27.064 27.7676 27.064 26.82C27.064 26.82 27.064 26.82 27.064 18.6547C27.064 18.6547 27.064 18.5337 26.9632 18.5337C26.9632 18.5337 26.9632 18.5337 25.9955 18.5337C25.9955 18.5337 25.9955 18.5337 25.9955 16.2958Z" fill="#FEFFFF"/>
<path fill-rule="evenodd" clip-rule="evenodd" d="M44.3422 16.2958C44.3422 16.2958 44.3422 16.2958 52.3866 16.2958C53.3543 16.2958 53.6769 16.7394 53.6769 17.5861C53.6769 17.5861 53.6769 17.5861 53.6769 19.6023H51.318C51.318 19.6023 51.318 19.6023 51.318 18.6547C51.318 18.5337 51.318 18.5337 51.1971 18.5337C51.1971 18.5337 51.1971 18.5337 49.7051 18.5337C49.7051 18.5337 49.7051 18.5337 49.7051 28.191C49.7051 28.191 49.7051 28.191 47.1245 28.191C47.1245 28.191 47.1245 28.191 47.1245 18.5337C47.1245 18.5337 47.1245 18.5337 45.6325 18.5337C45.5116 18.5337 45.5116 18.5337 45.5116 18.6547C45.5116 18.6547 45.5116 18.6547 45.5116 19.6023C45.5116 19.6023 45.5116 19.6023 43.1527 19.6023C43.1527 19.6023 43.1527 19.6023 43.1527 17.5861C43.1527 16.7394 43.4753 16.2958 44.3422 16.2958Z" fill="#FEFFFF"/>
<path fill-rule="evenodd" clip-rule="evenodd" d="M57.0035 16.2958C57.0035 16.2958 57.0035 16.2958 58.0922 16.2958H58.2938V19.7031C58.1728 19.9249 58.072 20.2273 58.072 20.5499C58.072 20.5499 58.072 20.5499 57.2051 22.9894C57.2051 22.9894 57.2051 22.9894 58.1123 22.9894H58.2938V25.2273H57.7091C57.3664 25.2273 57.0035 25.2273 56.5599 25.2273C56.5599 25.2273 56.5599 25.2273 55.8139 27.0216C55.6123 27.8684 55.1688 28.191 54.322 28.191C54.322 28.191 54.322 28.191 52.7091 28.191C52.7091 28.191 52.7091 28.191 52.7091 25.8523C52.7091 25.8523 52.7091 25.8523 53.2535 25.8523C53.4551 25.8523 53.4551 25.8523 53.576 25.7515C53.576 25.7515 53.576 25.7515 57.0035 16.316V16.2958Z" fill="#FEFFFF"/>
<path fill-rule="evenodd" clip-rule="evenodd" d="M58.2938 16.2958H59.564C59.564 16.2958 59.564 16.2958 63.0116 25.7515C63.1124 25.8523 63.1124 25.8523 63.3341 25.8523H63.7575C63.7575 25.8523 63.7575 25.8523 63.7575 28.191C63.7575 28.191 63.7575 28.191 62.2656 28.191C61.3987 28.191 60.9753 27.8684 60.7535 27.0216C60.7535 27.0216 60.7535 27.0216 60.0075 25.2273C60.0075 25.2273 60.0075 25.2273 58.5559 25.2273H58.2938V22.9894H59.3624C59.3624 22.9894 59.3624 22.9894 58.4954 20.5499C58.4954 20.2273 58.3946 19.9249 58.2938 19.7031V16.2958Z" fill="#FEFFFF"/>
</svg>
